<svg xmlns="http://www.w3.org/2000/svg" width="157.7" height="150.7" viewBox="0 0 157.7 150.7"><path fill="none" stroke="#231f20" stroke-miterlimit="10" stroke-width="3" d="M79.4 144.5c-2 0-19.6-66.8 29.9-66.8 43.8 0 31.2 60.6 27 66.8"/><path fill="#231f20" stroke="#231f20" stroke-miterlimit="10" stroke-width="3" d="M89.7 81.4s-4.9-9.5-6.6-8.4-5.4 9.8-9.4 2.1 5.9-12.3 10.1-8.9 7.3 14.9 7.3 14.9zm36.9-1.5s5.2-9.3 6.9-8.1 5 10 9.3 2.5-5.3-12.6-9.7-9.3-7.9 14.5-7.9 14.5z"/><circle cx="102.2" cy="93.8" r="1.7" fill="#231f20" stroke="#231f20" stroke-miterlimit="10"/><circle cx="92.5" cy="118.1" r=".7" fill="#231f20"/><circle cx="88.6" cy="118.1" r=".7" fill="#231f20"/><circle cx="90.7" cy="121.3" r=".7" fill="#231f20"/><circle cx="131.7" cy="118.1" r=".7" fill="#231f20"/><circle cx="127.7" cy="118.1" r=".7" fill="#231f20"/><circle cx="129.8" cy="121.3" r=".7" fill="#231f20"/><circle cx="117.3" cy="93.8" r="1.7" fill="#231f20" stroke="#231f20" stroke-miterlimit="10"/><circle cx="31" cy="112.5" r="1.7" fill="#231f20" stroke="#231f20" stroke-miterlimit="10"/><circle cx="46" cy="112.5" r="1.7" fill="#231f20" stroke="#231f20" stroke-miterlimit="10"/><circle cx="34.6" cy="65.9" r="1.7" fill="#231f20" stroke="#231f20" stroke-miterlimit="10"/><circle cx="42.4" cy="65.9" r="1.7" fill="#231f20" stroke="#231f20" stroke-miterlimit="10"/><path fill="none" stroke="#231f20" stroke-linecap="round" stroke-miterlimit="10" stroke-width="2" d="M102.2 101.9s9.6-4.8 16.8 0m-13.4 2.6s5.7-2.2 9.6 0m12.5 4.4c-2.5-1.9-7 .1-7 .1-10.9-5-17.7-1.4-20.3.5-1.2-.6-4.9-1.6-7.9.2m34.5 1.7c.5-.1-3.1-1.9-6.3-2.4M94 112.5c-.4 0 1.8-3 6.4-2.8"/><path fill="#231f20" stroke="#231f20" stroke-linecap="round" stroke-miterlimit="10" stroke-width="2" d="M105.5 112.5s5.7-2.3 10.8.9c3.1 1.9-1.4 11.1-2.6 11.1h-6.5c-1.1 0-7.3-9.7-1.7-12z"/><path fill="none" stroke="#231f20" stroke-linecap="round" stroke-miterlimit="10" stroke-width="2" d="M109.6 121.3s-2.3 11.2-15.1 9.1m16.4-7.9s2.3 11.2 15.1 9.1m-21.4-1.8c-.8 5.1 9 9.9 12.8.9"/><path fill="none" stroke="#231f20" stroke-miterlimit="10" stroke-width="3" d="M61.9 144.5c10.5-5 21.7-53.4-22.4-54.8h-3.8c-41 .2-31.6 49.8-18.6 54.8"/><rect width="3.7" height="10.53" x="27.4" y="89.7" fill="#231f20" rx="1.9"/><rect width="3.7" height="10.53" x="34.8" y="89.7" fill="#231f20" rx="1.9"/><rect width="3.7" height="10.53" x="42.2" y="89.7" fill="#231f20" rx="1.9"/><ellipse cx="37.2" cy="122.6" fill="#231f20" rx="2" ry="3.1" transform="rotate(-38.3 37.273 122.66)"/><ellipse cx="39.2" cy="122.5" fill="#231f20" rx="3.1" ry="2" transform="rotate(-51.7 39.174 122.448)"/><path fill="none" stroke="#231f20" stroke-linecap="round" stroke-miterlimit="10" stroke-width="2" d="M38.7 123.5c7.2 13 19 6.7 19 6.7 6.1-2.9 3.9-11.2 0-12.5m-19 5.8c-7.2 13-19 6.7-19 6.7-6.1-2.9-4-11.2 0-12.5"/><path fill="none" stroke="#231f20" stroke-linecap="round" stroke-miterlimit="10" stroke-width="3" d="M11 100.2a76.1 76.1 0 0 1-1.7-13.9c0-4.2 1.1-6.7 2.9-6.7 3.4 0 12 2 14 10.3"/><path fill="none" stroke="#231f20" stroke-linecap="round" stroke-miterlimit="10" stroke-width="3" d="M22.1 91.7c.4-.5-7-9.1-10.4-7.1A4.8 4.8 0 0 0 9.4 89m6.9 2v4m-3.1-3.9l2.1 5.1m50.6 5.2a119.2 119.2 0 0 0 2-15.4c.1-2.2.7-5.4-1.5-5.8S53.1 82.6 51.2 91"/><path fill="none" stroke="#231f20" stroke-linecap="round" stroke-miterlimit="10" stroke-width="3" d="M55.3 93c.4-2.1 4.3-9.7 10.3-7.6 2.9 1 2.1 4.3 2.1 4.3M61.1 91l-.4 5.2m3.2-3.7l-2.7 4m-6.6-21.3c0-9.4-3.4-15.9-16.3-16.5s-16.2 5.4-16.9 14.9c0 0-2 10.6 17.1 12.4C53 87.3 54.6 75.2 54.6 75.2z"/><rect width="74.4" height="49.77" x="70.4" y="12.2" fill="none" stroke="#231f20" stroke-linecap="round" stroke-miterlimit="10" stroke-width="3" rx="2.7"/><rect width="16.5" height="9.4" x="121.7" y="2.8" fill="none" stroke="#231f20" stroke-linecap="round" stroke-miterlimit="10" stroke-width="3" rx="2.1"/><circle cx="106.3" cy="37.1" r="16.2" fill="none" stroke="#231f20" stroke-linecap="round" stroke-miterlimit="10" stroke-width="3"/><circle cx="106.3" cy="37.1" r="10.2" fill="none" stroke="#231f20" stroke-linecap="round" stroke-miterlimit="10" stroke-width="3"/><circle cx="132" cy="24.3" r="5.5" fill="#231f20"/><path fill="none" stroke="#231f20" stroke-miterlimit="10" stroke-width="2" d="M30.7 72.5c-.1-3.9 14.9-4.5 15.3 0zm15.3 0c.1 5.1-14.9 5.9-15.2 0z"/><path fill="none" stroke="#231f20" stroke-miterlimit="10" stroke-width="3" d="M5.9 16h64.4v39.86H5.9z"/><path fill="none" stroke="#231f20" stroke-miterlimit="10" stroke-width="3" d="M5.9 16h9.9v5.96H5.9zm0 6h24.8v26.56H5.9zm24.9 0h24.8v26.56H30.8zm-13.4-6h9.9v5.96h-9.9zm11.3 0h9.9v5.96h-9.9zm11.4 0H50v5.96h-9.9zm11.3 0h9.9v5.96h-9.9zm11.3 0h6.9v5.96h-6.9zM5.9 49.9h9.9v5.96H5.9zm11.5 0h9.9v5.96h-9.9zm11.3 0h9.9v5.96h-9.9zm11.4 0H50v5.96h-9.9zm11.3 0h9.9v5.96h-9.9zm11.3 0h6.9v5.96h-6.9z"/><path fill="none" stroke="#231f20" stroke-linecap="round" stroke-miterlimit="10" stroke-width="3" d="M31.1 85a20.9 20.9 0 0 1 0 4m16-4a20.9 20.9 0 0 1 0 4"/></svg>