<svg id="Layer_1" data-name="Layer 1" xmlns="http://www.w3.org/2000/svg" width="150.3" height="183.6" viewBox="0 0 150.3 183.6"><path d="M77.5,144.5c-2,0-19.6-66.8,29.9-66.8,43.8,0,31.2,60.6,27,66.8" fill="none" stroke="#fff" stroke-miterlimit="10" stroke-width="3"/><path d="M87.8,81.4s-4.9-9.5-6.6-8.4-5.4,9.8-9.4,2.1,5.9-12.3,10.1-8.9,7.3,14.9,7.3,14.9Z" fill="#fff" stroke="#fff" stroke-miterlimit="10" stroke-width="3"/><path d="M124.7,79.9s5.2-9.3,6.9-8.1,5,10,9.3,2.5-5.3-12.6-9.7-9.3-7.9,14.5-7.9,14.5Z" fill="#fff" stroke="#fff" stroke-miterlimit="10" stroke-width="3"/><circle cx="100.3" cy="93.8" r="1.7" fill="#fff" stroke="#fff" stroke-miterlimit="10"/><circle cx="90.6" cy="118.1" r="0.7" fill="#fff"/><circle cx="86.6" cy="118.1" r="0.7" fill="#fff"/><circle cx="88.7" cy="121.3" r="0.7" fill="#fff"/><circle cx="129.8" cy="118.1" r="0.7" fill="#fff"/><circle cx="125.8" cy="118.1" r="0.7" fill="#fff"/><circle cx="127.9" cy="121.3" r="0.7" fill="#fff"/><circle cx="115.3" cy="93.8" r="1.7" fill="#fff" stroke="#fff" stroke-miterlimit="10"/><circle cx="29.1" cy="112.5" r="1.7" fill="#fff" stroke="#fff" stroke-miterlimit="10"/><circle cx="44.1" cy="112.5" r="1.7" fill="#fff" stroke="#fff" stroke-miterlimit="10"/><circle cx="32.7" cy="65.9" r="1.7" fill="#fff" stroke="#fff" stroke-miterlimit="10"/><circle cx="40.5" cy="65.9" r="1.7" fill="#fff" stroke="#fff" stroke-miterlimit="10"/><path d="M100.3,101.9s9.6-4.8,16.8,0" fill="none" stroke="#fff" stroke-linecap="round" stroke-miterlimit="10" stroke-width="2"/><path d="M103.7,104.5s5.7-2.2,9.6,0" fill="none" stroke="#fff" stroke-linecap="round" stroke-miterlimit="10" stroke-width="2"/><path d="M125.8,108.9c-2.5-1.9-7,.1-7,.1-10.9-5-17.7-1.4-20.3.5-1.2-.6-4.9-1.6-7.9.2" fill="none" stroke="#fff" stroke-linecap="round" stroke-miterlimit="10" stroke-width="2"/><path d="M125.1,111.4c.5-.1-3.1-1.9-6.3-2.4" fill="none" stroke="#fff" stroke-linecap="round" stroke-miterlimit="10" stroke-width="2"/><path d="M92.1,112.5c-.4,0,1.8-3,6.4-2.8" fill="none" stroke="#fff" stroke-linecap="round" stroke-miterlimit="10" stroke-width="2"/><path d="M103.6,112.5s5.7-2.3,10.8.9c3.1,1.9-1.4,11.1-2.7,11.1h-6.4C104.2,124.5,97.9,114.8,103.6,112.5Z" fill="#fff" stroke="#fff" stroke-linecap="round" stroke-miterlimit="10" stroke-width="2"/><path d="M107.7,121.3s-2.3,11.2-15.1,9.1" fill="none" stroke="#fff" stroke-linecap="round" stroke-miterlimit="10" stroke-width="2"/><path d="M109,122.5s2.3,11.2,15.1,9.1" fill="none" stroke="#fff" stroke-linecap="round" stroke-miterlimit="10" stroke-width="2"/><path d="M102.7,129.8c-.8,5.1,9,9.9,12.7.9" fill="none" stroke="#fff" stroke-linecap="round" stroke-miterlimit="10" stroke-width="2"/><path d="M60,144.5c10.5-5,21.7-53.4-22.4-54.8H33.8c-41,.2-31.6,49.8-18.6,54.8" fill="none" stroke="#fff" stroke-miterlimit="10" stroke-width="3"/><rect x="25.5" y="89.7" width="3.7" height="10.53" rx="1.9" fill="#fff"/><rect x="32.9" y="89.7" width="3.7" height="10.53" rx="1.9" fill="#fff"/><rect x="40.2" y="89.7" width="3.7" height="10.53" rx="1.9" fill="#fff"/><ellipse cx="35.3" cy="122.6" rx="2" ry="3.1" transform="translate(-68.5 48.3) rotate(-38.3)" fill="#fff"/><ellipse cx="37.3" cy="122.5" rx="3.1" ry="2" transform="translate(-81.9 75.8) rotate(-51.7)" fill="#fff"/><path d="M36.8,123.5c7.2,13,19,6.7,19,6.7,6.1-2.9,3.9-11.2,0-12.5" fill="none" stroke="#fff" stroke-linecap="round" stroke-miterlimit="10" stroke-width="2"/><path d="M36.8,123.5c-7.3,13-19.1,6.7-19.1,6.7-6-2.9-3.9-11.2.1-12.5" fill="none" stroke="#fff" stroke-linecap="round" stroke-miterlimit="10" stroke-width="2"/><path d="M9.1,100.2A76.1,76.1,0,0,1,7.4,86.3c0-4.2,1.1-6.7,2.9-6.7,3.4,0,12,2,14,10.3" fill="none" stroke="#fff" stroke-linecap="round" stroke-miterlimit="10" stroke-width="3"/><path d="M20.2,91.7c.4-.5-7.1-9.1-10.4-7.1A4.8,4.8,0,0,0,7.5,89" fill="none" stroke="#fff" stroke-linecap="round" stroke-miterlimit="10" stroke-width="3"/><line x1="14.4" y1="91" x2="14.4" y2="95" fill="none" stroke="#fff" stroke-linecap="round" stroke-miterlimit="10" stroke-width="3"/><line x1="11.3" y1="91.1" x2="13.4" y2="96.2" fill="none" stroke="#fff" stroke-linecap="round" stroke-miterlimit="10" stroke-width="3"/><path d="M64,101.4A119.2,119.2,0,0,0,66,86c0-2.2.7-5.4-1.5-5.8S51.2,82.6,49.3,91" fill="none" stroke="#fff" stroke-linecap="round" stroke-miterlimit="10" stroke-width="3"/><path d="M53.4,93c.4-2.1,4.3-9.7,10.3-7.6,2.9,1,2.1,4.3,2.1,4.3" fill="none" stroke="#fff" stroke-linecap="round" stroke-miterlimit="10" stroke-width="3"/><line x1="59.2" y1="91" x2="58.8" y2="96.2" fill="none" stroke="#fff" stroke-linecap="round" stroke-miterlimit="10" stroke-width="3"/><line x1="62" y1="92.5" x2="59.2" y2="96.5" fill="none" stroke="#fff" stroke-linecap="round" stroke-miterlimit="10" stroke-width="3"/><path d="M52.7,75.2c0-9.4-3.4-15.9-16.3-16.5S20.2,64.1,19.5,73.6c0,0-2,10.6,17.1,12.4C51.1,87.3,52.7,75.2,52.7,75.2Z" fill="none" stroke="#fff" stroke-linecap="round" stroke-miterlimit="10" stroke-width="3"/><rect x="68.5" y="12.2" width="74.4" height="49.77" rx="2.7" fill="none" stroke="#fff" stroke-linecap="round" stroke-miterlimit="10" stroke-width="3"/><rect x="119.8" y="2.8" width="16.5" height="9.4" rx="2.1" fill="none" stroke="#fff" stroke-linecap="round" stroke-miterlimit="10" stroke-width="3"/><circle cx="104.4" cy="37.1" r="16.2" fill="none" stroke="#fff" stroke-linecap="round" stroke-miterlimit="10" stroke-width="3"/><circle cx="104.4" cy="37.1" r="10.2" fill="none" stroke="#fff" stroke-linecap="round" stroke-miterlimit="10" stroke-width="3"/><circle cx="130.1" cy="24.3" r="5.5" fill="#fff"/><path d="M16,151.9c0,.7.1,1.2.1,1.6h-.5a6.8,6.8,0,0,0-1.3-3.3,2.9,2.9,0,0,0-2.3-1H10.4c-.2.1-.4.2-.4.5a2.2,2.2,0,0,0-.1.9V156h.7a2.1,2.1,0,0,0,1.7-.8,5.2,5.2,0,0,0,.8-2h.5a12.7,12.7,0,0,0-.1,2v1c0,.7.1,1.7.1,3h-.4c-.3-1.8-1.2-2.8-2.6-2.8H9.9v4.9a4.1,4.1,0,0,0,.1,1.2,1.2,1.2,0,0,0,.7.5l1.4.2v.4H4.9v-.4L6,163c.2,0,.3-.2.4-.4a4.1,4.1,0,0,0,.1-1.2V151a3.8,3.8,0,0,0-.1-1.2,1,1,0,0,0-.4-.5H4.9v-.4H16.2C16.1,149.9,16,151,16,151.9Z" fill="#fff"/><path d="M24,149.2H22.9a1.2,1.2,0,0,0-.5.5,3.8,3.8,0,0,0-.1,1.2v10.6a2.5,2.5,0,0,0,.1,1c.1.2.2.4.4.4h1.8a3.2,3.2,0,0,0,2.5-1.2,7,7,0,0,0,1.4-3.4h.4v1.8a31.2,31.2,0,0,0,.1,3.3H17.4v-.4l1-.2a.4.4,0,0,0,.4-.4,4.1,4.1,0,0,0,.1-1.2V151a3.8,3.8,0,0,0-.1-1.2.7.7,0,0,0-.4-.5h-1v-.4H24Z" fill="#fff"/><path d="M43.5,149.2a2,2,0,0,0-1,.3,1.4,1.4,0,0,0-.5.8,7.1,7.1,0,0,0-.1,1.6v5.6A8.9,8.9,0,0,1,41,162a3.2,3.2,0,0,1-1.6,1.4,6.7,6.7,0,0,1-2.6.5,6.1,6.1,0,0,1-3.8-1,4.4,4.4,0,0,1-1.3-2,14.2,14.2,0,0,1-.3-3.3V151a3.3,3.3,0,0,0-.2-1.2.7.7,0,0,0-.4-.5h-1v-.4h6.6v.4H35.3a1.2,1.2,0,0,0-.5.5,3.8,3.8,0,0,0-.1,1.2v7.9a6.5,6.5,0,0,0,.6,3.2,2.6,2.6,0,0,0,2.3,1.1,3.4,3.4,0,0,0,3-1.4,9,9,0,0,0,.8-4.1v-5.5a8.7,8.7,0,0,0-.1-1.8,1.5,1.5,0,0,0-.6-.9,3.5,3.5,0,0,0-1.3-.3v-.4h4.1Z" fill="#fff"/><path d="M55.7,151.9v1.6h-.5a6.9,6.9,0,0,0-1.2-3.3,3.3,3.3,0,0,0-2.4-1H50a.7.7,0,0,0-.4.5,2.2,2.2,0,0,0-.1.9V156h.7a2,2,0,0,0,1.7-.8,4,4,0,0,0,.8-2h.5c0,.6-.1,1.3-.1,2v1c0,.7.1,1.7.2,3h-.5c-.3-1.8-1.2-2.8-2.6-2.8h-.7v4.9a2.2,2.2,0,0,0,.2,1.2c.1.3.3.4.6.5l1.4.2v.4H44.6v-.4l1-.2a.4.4,0,0,0,.4-.4,4.1,4.1,0,0,0,.1-1.2V151a3.8,3.8,0,0,0-.1-1.2.7.7,0,0,0-.4-.5h-1v-.4H55.8C55.7,149.9,55.7,151,55.7,151.9Z" fill="#fff"/><path d="M68.1,151.9a7.1,7.1,0,0,0,.1,1.6h-.5a6.8,6.8,0,0,0-1.3-3.3,3.1,3.1,0,0,0-2.3-1H62.4a.7.7,0,0,0-.4.5,2.2,2.2,0,0,0-.1.9V156h.7a1.9,1.9,0,0,0,1.7-.8,4,4,0,0,0,.8-2h.5v3c0,.7,0,1.7.1,3h-.5c-.3-1.8-1.1-2.8-2.6-2.8h-.7v4.9a3.7,3.7,0,0,0,.2,1.2c.1.3.3.4.6.5l1.5.2v.4H57v-.4l1-.2a.7.7,0,0,0,.5-.4c0-.3.1-.7.1-1.2V151c0-.6-.1-.9-.1-1.2a1.2,1.2,0,0,0-.5-.5H57v-.4H68.2C68.1,149.9,68.1,151,68.1,151.9Z" fill="#fff"/><path d="M81.7,148.7v.5c-.7.2-1.3,1-2,2.4l-2.5,4.9v4.9a4.1,4.1,0,0,0,.1,1.2c.1.2.2.4.4.4l1.1.2v.4H72.3v-.4l1-.2c.2,0,.3-.2.4-.4a4.1,4.1,0,0,0,.1-1.2v-3.6l-4-7.4c-.4-.8-.9-1.2-1.2-1.2v-.5H75v.5H73.8a.5.5,0,0,0-.4.5,4.3,4.3,0,0,1,.1.5l3.2,6.1,1.7-3.3a6.8,6.8,0,0,0,.8-2.6,1.2,1.2,0,0,0-.5-1,2.1,2.1,0,0,0-1.2-.3v-.5h4.2Z" fill="#fff"/><path d="M94.1,148.7a4.2,4.2,0,0,1,1.4.6l.4.2h.3l.3-.2c0-.2.1-.4.1-.7h.5c-.1.9-.1,2.5-.1,4.8h-.5a5.4,5.4,0,0,0-.5-2.2,5.2,5.2,0,0,0-1.2-1.7A2.8,2.8,0,0,0,93,149a2.4,2.4,0,0,0-1.7.6,2,2,0,0,0-.7,1.5,2,2,0,0,0,.4,1.3,3.9,3.9,0,0,0,.8,1l1.8,1.2.7.5,1.9,1.4a5.3,5.3,0,0,1,1.2,1.4,4.1,4.1,0,0,1,.4,1.9,3.5,3.5,0,0,1-.7,2.3,5.1,5.1,0,0,1-1.8,1.4,7.7,7.7,0,0,1-2.7.4l-1.9-.2a3.9,3.9,0,0,1-1.5-.6l-.7-.3-.3.3a3.5,3.5,0,0,0-.1.7h-.5c0-.9.1-2.8.1-5.7h.4a8.1,8.1,0,0,0,1.1,3.8,3,3,0,0,0,2.8,1.5,2.8,2.8,0,0,0,1.8-.6,2.2,2.2,0,0,0,.8-1.8,3,3,0,0,0-.8-2,10.5,10.5,0,0,0-2.4-1.9l-2-1.4a4.4,4.4,0,0,1-1.2-1.5,2.9,2.9,0,0,1-.5-1.9,3.4,3.4,0,0,1,2.3-3.4,6.1,6.1,0,0,1,2.4-.4Z" fill="#fff"/><path d="M113.8,149.3l-.5.5c0,.3-.1.6-.1,1.2v10.4c0,.5.1.9.1,1.2a.7.7,0,0,0,.5.4l1,.2v.4h-6.5v-.4l1-.2a.7.7,0,0,0,.5-.4c0-.3.1-.7.1-1.2v-5h-5.6v5c0,.5.1.9.1,1.2s.2.4.5.4l1,.2v.4H99.4v-.4l1-.2a.7.7,0,0,0,.5-.4c0-.3.1-.7.1-1.2V151c0-.6-.1-.9-.1-1.2l-.5-.5h-1v-.4h6.5v.4h-1a.8.8,0,0,0-.5.5c0,.3-.1.6-.1,1.2v4.9h5.6V151c0-.6-.1-.9-.1-1.2a1.2,1.2,0,0,0-.5-.5h-1v-.4h6.5v.4Z" fill="#fff"/><path d="M127.6,149.4a5.7,5.7,0,0,1,2.5,2.6,7.6,7.6,0,0,1,1,4.1,8,8,0,0,1-1,4.1,6.8,6.8,0,0,1-2.6,2.7,7.1,7.1,0,0,1-3.9,1,8.3,8.3,0,0,1-3.9-.9,7.2,7.2,0,0,1-2.6-2.6,8.6,8.6,0,0,1-.9-4.1,8,8,0,0,1,1-4.1,7,7,0,0,1,2.6-2.8,8,8,0,0,1,3.9-.9A8.6,8.6,0,0,1,127.6,149.4Zm-6.1.4a5.8,5.8,0,0,0-1.3,2.6,14.6,14.6,0,0,0-.5,3.8,14.8,14.8,0,0,0,.5,3.9,6.6,6.6,0,0,0,1.5,2.5,2.8,2.8,0,0,0,2,.9,2.9,2.9,0,0,0,2.1-.9,7,7,0,0,0,1.3-2.6,14.8,14.8,0,0,0,.5-3.9,11.2,11.2,0,0,0-.6-3.8,5.9,5.9,0,0,0-1.4-2.6,2.8,2.8,0,0,0-2-.9A3,3,0,0,0,121.5,149.8Z" fill="#fff"/><path d="M145.3,152.3a7.1,7.1,0,0,0,.1,1.6h-.5a7.7,7.7,0,0,0-1.4-3.6,3,3,0,0,0-2.4-1.1h-.5v12a3.9,3.9,0,0,0,.2,1.3.8.8,0,0,0,.7.5l1.4.2v.4h-7.8v-.4l1.4-.2a.6.6,0,0,0,.6-.5,3.9,3.9,0,0,0,.2-1.3v-12h-.5a3.4,3.4,0,0,0-1.7.5,5.8,5.8,0,0,0-1.2,1.4,12,12,0,0,0-.8,2.8h-.5v-1.6c0-1,0-2.2-.1-3.5h13C145.4,150.1,145.3,151.3,145.3,152.3Z" fill="#fff"/><path d="M2.8,177.9V167.3H7.3l1.2.3,1,.7a4.1,4.1,0,0,1,.7,1.1,4,4,0,0,1,0,2.5L9.6,173l-1,.7a2.8,2.8,0,0,1-1.3.3H3.9v3.9Zm1.1-4.8H7.3l.8-.2.7-.6a2,2,0,0,0,.4-.8,2.1,2.1,0,0,0,0-1.8,2.2,2.2,0,0,0-.5-.8,1.8,1.8,0,0,0-.7-.5l-.8-.2H3.9Z" fill="#fff"/><path d="M19.3,177v.9H12.2V167.3h7v.9h-6V172h5.2v.9H13.2V177Z" fill="#fff"/><path d="M28.9,168.2H25.1v9.7H24v-9.7H20.2v-.9h8.7Z" fill="#fff"/><path d="M33.9,177.9V167.3h4.4a2.4,2.4,0,0,1,1.2.3,2.6,2.6,0,0,1,1,.7,4.1,4.1,0,0,1,.7,1.1,2.5,2.5,0,0,1,.2,1.2,2.7,2.7,0,0,1-.2,1.3,2.4,2.4,0,0,1-.6,1.1l-1,.7a2.7,2.7,0,0,1-1.2.3H34.9v3.9Zm1-4.8h3.4l.9-.2.6-.6a2,2,0,0,0,.4-.8,2.1,2.1,0,0,0,0-1.8,2.2,2.2,0,0,0-.5-.8,1.5,1.5,0,0,0-.6-.5l-.9-.2H34.9Z" fill="#fff"/><path d="M51.6,167.3v10.6h-1v-5H44.2v5h-1V167.3h1V172h6.4v-4.7Z" fill="#fff"/><path d="M58.6,178a4.6,4.6,0,0,1-2.1-.5,6.1,6.1,0,0,1-1.6-1.2,9.5,9.5,0,0,1-1-1.7,6.9,6.9,0,0,1-.3-2,6.4,6.4,0,0,1,.3-2,5.4,5.4,0,0,1,1.1-1.8,4.8,4.8,0,0,1,1.6-1.2,4.5,4.5,0,0,1,2-.4,4.6,4.6,0,0,1,2,.5,6.1,6.1,0,0,1,1.6,1.2,9.5,9.5,0,0,1,1,1.7,6.9,6.9,0,0,1,.3,2,7.6,7.6,0,0,1-.3,2.1,6.2,6.2,0,0,1-1.1,1.7,4.8,4.8,0,0,1-1.6,1.2A4.1,4.1,0,0,1,58.6,178Zm-4-5.4a5.1,5.1,0,0,0,.3,1.7,6.4,6.4,0,0,0,.8,1.4l1.2,1a4.7,4.7,0,0,0,1.7.4,4.2,4.2,0,0,0,1.6-.4,3.2,3.2,0,0,0,1.2-1.1,3.9,3.9,0,0,0,.8-1.4,4.5,4.5,0,0,0,.3-1.6,5.1,5.1,0,0,0-.3-1.7,6.4,6.4,0,0,0-.8-1.4l-1.3-1a3.7,3.7,0,0,0-1.5-.3,4.7,4.7,0,0,0-1.7.3,3.2,3.2,0,0,0-1.2,1.1,3.2,3.2,0,0,0-.8,1.4A4.1,4.1,0,0,0,54.6,172.6Z" fill="#fff"/><path d="M72.6,168.2H68.8v9.7H67.7v-9.7H64v-.9h8.6Z" fill="#fff"/><path d="M78,178a5,5,0,0,1-2.1-.5,4.4,4.4,0,0,1-1.5-1.2,6.2,6.2,0,0,1-1.1-1.7,6.9,6.9,0,0,1-.3-2,4.5,4.5,0,0,1,.4-2,5.2,5.2,0,0,1,1-1.8,6.1,6.1,0,0,1,1.6-1.2,4.5,4.5,0,0,1,2-.4,4.6,4.6,0,0,1,2,.5,4.8,4.8,0,0,1,1.6,1.2,5.9,5.9,0,0,1,1,1.7,7.1,7.1,0,0,1,.4,2,7.8,7.8,0,0,1-.4,2.1,6.2,6.2,0,0,1-1.1,1.7,4.4,4.4,0,0,1-1.5,1.2A4.8,4.8,0,0,1,78,178Zm-4-5.4a5.1,5.1,0,0,0,.3,1.7,6.4,6.4,0,0,0,.8,1.4l1.3,1a3.8,3.8,0,0,0,1.6.4,4.2,4.2,0,0,0,1.6-.4,4.5,4.5,0,0,0,1.3-1.1,3.7,3.7,0,0,0,.7-1.4,4.5,4.5,0,0,0,.3-1.6,5.1,5.1,0,0,0-.3-1.7,3.9,3.9,0,0,0-.8-1.4,5.8,5.8,0,0,0-1.2-1,4.1,4.1,0,0,0-1.6-.3,4.7,4.7,0,0,0-1.7.3,3.2,3.2,0,0,0-1.2,1.1,4.7,4.7,0,0,0-.8,1.4A4.1,4.1,0,0,0,74,172.6Z" fill="#fff"/><path d="M92.6,176.4a4.3,4.3,0,0,1-3.4,1.6,4.6,4.6,0,0,1-2-.5,4.4,4.4,0,0,1-1.5-1.2,6.2,6.2,0,0,1-1.1-1.7,7.1,7.1,0,0,1-.4-2,7.8,7.8,0,0,1,.4-2.1,9.5,9.5,0,0,1,1-1.7,6.1,6.1,0,0,1,1.6-1.2,4.5,4.5,0,0,1,2-.4l1.4.2a2.2,2.2,0,0,1,1.1.5,2.2,2.2,0,0,1,.9.7,2.4,2.4,0,0,1,.6.9l-.8.6a3.2,3.2,0,0,0-1.3-1.5,4.2,4.2,0,0,0-2-.5,3.7,3.7,0,0,0-1.5.4l-1.3,1a3.7,3.7,0,0,0-.7,1.4,5.1,5.1,0,0,0-.3,1.7,4.7,4.7,0,0,0,.3,1.7,6.4,6.4,0,0,0,.8,1.4,4.1,4.1,0,0,0,1.3,1,4.2,4.2,0,0,0,1.6.4,3.4,3.4,0,0,0,1.7-.5,4.8,4.8,0,0,0,1.6-1.3v-1.8H90.3v-.8h3.2v5.2h-.9Z" fill="#fff"/><path d="M95.7,177.9V167.3h4.5a3.1,3.1,0,0,1,1.3.3l1,.7a3.9,3.9,0,0,1,.6,1.1,2.5,2.5,0,0,1,.2,1.2,3.7,3.7,0,0,1-.1,1.1,3.1,3.1,0,0,1-.5,1,2.7,2.7,0,0,1-.8.7,2.5,2.5,0,0,1-.9.4l2.6,4.1h-1.2L99.9,174H96.7v3.9Zm1-4.8h3.5l.9-.2.6-.6a2,2,0,0,0,.4-.8,2.1,2.1,0,0,0,0-1.8l-.4-.8-.7-.5-.9-.2H96.7Z" fill="#fff"/><path d="M108.6,167.3h.9l4.4,10.6h-1.1l-1.4-3.3h-4.7l-1.4,3.3h-1.1Zm2.6,6.5-2.1-5.3-2.2,5.3Z" fill="#fff"/><path d="M115.5,177.9V167.3h4.4a2.4,2.4,0,0,1,1.2.3,2.6,2.6,0,0,1,1,.7,4.1,4.1,0,0,1,.7,1.1,2.5,2.5,0,0,1,.2,1.2,2.7,2.7,0,0,1-.2,1.3,2.4,2.4,0,0,1-.6,1.1l-1,.7a2.7,2.7,0,0,1-1.2.3h-3.5v3.9Zm1-4.8h3.4l.9-.2.6-.6a2,2,0,0,0,.4-.8,2.1,2.1,0,0,0,0-1.8,2.2,2.2,0,0,0-.5-.8,1.5,1.5,0,0,0-.6-.5l-.9-.2h-3.3Z" fill="#fff"/><path d="M133.2,167.3v10.6h-1v-5h-6.4v5h-1V167.3h1V172h6.4v-4.7Z" fill="#fff"/><path d="M135.9,167.3l3.5,5.7,3.5-5.7h1.2l-4.2,6.7v3.9h-1v-4l-4.1-6.6Z" fill="#fff"/><path d="M28.8,72.5c-.1-3.9,14.9-4.5,15.3,0Z" fill="none" stroke="#fff" stroke-miterlimit="10" stroke-width="2"/><path d="M44.1,72.5c.1,5.1-14.9,5.9-15.3,0Z" fill="none" stroke="#fff" stroke-miterlimit="10" stroke-width="2"/><rect x="4" y="16" width="64.4" height="39.86" fill="none" stroke="#fff" stroke-miterlimit="10" stroke-width="3"/><rect x="4" y="16" width="9.9" height="5.96" fill="none" stroke="#fff" stroke-miterlimit="10" stroke-width="3"/><rect x="4" y="22" width="24.8" height="26.56" fill="none" stroke="#fff" stroke-miterlimit="10" stroke-width="3"/><rect x="28.8" y="22" width="24.8" height="26.56" fill="none" stroke="#fff" stroke-miterlimit="10" stroke-width="3"/><rect x="15.5" y="16" width="9.9" height="5.96" fill="none" stroke="#fff" stroke-miterlimit="10" stroke-width="3"/><rect x="26.8" y="16" width="9.9" height="5.96" fill="none" stroke="#fff" stroke-miterlimit="10" stroke-width="3"/><rect x="38.2" y="16" width="9.9" height="5.96" fill="none" stroke="#fff" stroke-miterlimit="10" stroke-width="3"/><rect x="49.5" y="16" width="9.9" height="5.96" fill="none" stroke="#fff" stroke-miterlimit="10" stroke-width="3"/><rect x="60.8" y="16" width="6.9" height="5.96" fill="none" stroke="#fff" stroke-miterlimit="10" stroke-width="3"/><rect x="4" y="49.9" width="9.9" height="5.96" fill="none" stroke="#fff" stroke-miterlimit="10" stroke-width="3"/><rect x="15.5" y="49.9" width="9.9" height="5.96" fill="none" stroke="#fff" stroke-miterlimit="10" stroke-width="3"/><rect x="26.8" y="49.9" width="9.9" height="5.96" fill="none" stroke="#fff" stroke-miterlimit="10" stroke-width="3"/><rect x="38.2" y="49.9" width="9.9" height="5.96" fill="none" stroke="#fff" stroke-miterlimit="10" stroke-width="3"/><rect x="49.5" y="49.9" width="9.9" height="5.96" fill="none" stroke="#fff" stroke-miterlimit="10" stroke-width="3"/><rect x="60.8" y="49.9" width="6.9" height="5.96" fill="none" stroke="#fff" stroke-miterlimit="10" stroke-width="3"/><path d="M29.2,85a20.9,20.9,0,0,1,0,4" fill="none" stroke="#fff" stroke-linecap="round" stroke-miterlimit="10" stroke-width="3"/><path d="M45.2,85a20.9,20.9,0,0,1,0,4" fill="none" stroke="#fff" stroke-linecap="round" stroke-miterlimit="10" stroke-width="3"/><line x1="7.4" y1="144.5" x2="144.4" y2="144.5" fill="none" stroke="#fff" stroke-linecap="round" stroke-miterlimit="10" stroke-width="3"/></svg>