<svg xmlns="http://www.w3.org/2000/svg" width="83.5" height="87" viewBox="0 0 83.5 87"><path fill="none" stroke="#231f20" stroke-miterlimit="10" stroke-width="3" d="M13.7 83.1c-2.1 0-19.6-66.9 29.8-66.9 43.9 0 31.2 60.7 27.1 66.9"/><path fill="#231f20" stroke="#231f20" stroke-miterlimit="10" stroke-width="3" d="M23.9 20s-4.8-9.5-6.5-8.4-5.5 9.8-9.4 2.1 5.8-12.4 10.1-8.9 7.2 14.8 7.2 14.8zm36.9-1.5s5.3-9.3 6.9-8.1 5 10 9.3 2.5S71.7.3 67.3 3.6s-7.9 14.5-7.9 14.5z"/><circle cx="36.4" cy="32.4" r="1.7" fill="#231f20" stroke="#231f20" stroke-miterlimit="10"/><circle cx="26.8" cy="56.7" r=".7" fill="#231f20"/><circle cx="22.8" cy="56.7" r=".7" fill="#231f20"/><circle cx="24.9" cy="59.9" r=".7" fill="#231f20"/><circle cx="65.9" cy="56.7" r=".7" fill="#231f20"/><circle cx="61.9" cy="56.7" r=".7" fill="#231f20"/><circle cx="64" cy="59.9" r=".7" fill="#231f20"/><circle cx="51.5" cy="32.4" r="1.7" fill="#231f20" stroke="#231f20" stroke-miterlimit="10"/><path fill="none" stroke="#231f20" stroke-linecap="round" stroke-miterlimit="10" stroke-width="2" d="M36.4 40.5s9.6-4.8 16.8 0m-13.4 2.6s5.7-2.2 9.7 0m12.4 4.3c-2.5-1.8-7 .2-7 .2-10.9-5.1-17.6-1.4-20.2.5-1.2-.7-5-1.7-7.9.1M61.3 50c.4-.1-3.1-2-6.4-2.4m-26.7 3.5c-.4 0 1.8-3 6.5-2.9"/><path fill="#231f20" stroke="#231f20" stroke-linecap="round" stroke-miterlimit="10" stroke-width="2" d="M39.7 51.1s5.7-2.3 10.8.9c3.1 1.9-1.4 11-2.6 11h-6.4c-1.1 0-7.4-9.6-1.8-11.9z"/><path fill="none" stroke="#231f20" stroke-linecap="round" stroke-miterlimit="10" stroke-width="2" d="M43.8 59.9S41.5 71.1 28.7 69m16.5-7.9s2.3 11.2 15.1 9.1m-21.5-1.8c-.7 5 9.1 9.9 12.8.9"/></svg>